# xmcd
#
# Track frame offsets:
#	150
#	14374
#	34090
#	48878
#	69549
#	86779
#	102264
#	120883
#	135950
#	145869
#	161991
#
# Disc length: 2426 seconds
#
# Revision: 0
# Processed by: cddbd v1.5.2PL0 Copyright (c) Steve Scherf et al.
# Submitted via: dBpowerAMP V4.0
#
DISCID=8b09780b
DTITLE=Grinderman - Grinderman
DYEAR=1900
DGENRE=Blues-Rock
TTITLE0=Get It On
TTITLE1=No Pussy Blues
TTITLE2=Electric Alice
TTITLE3=Grinderman
TTITLE4=Depth Charge Ethel
TTITLE5=Go Tell The Women
TTITLE6=(I Don't Need You To) Set Me Free
TTITLE7=Honey Bees (Let's Fly To Mars)
TTITLE8=Man In The Moon
TTITLE9=When My Love Comes Down
TTITLE10=Love Bomb
EXTD=
EXTT0=
EXTT1=
EXTT2=
EXTT3=
EXTT4=
EXTT5=
EXTT6=
EXTT7=
EXTT8=
EXTT9=
EXTT10=
PLAYORDER=
